<?xml version="1.0" standalone="no"?>
<!DOCTYPE svg PUBLIC "-//W3C//DTD SVG 20010904//EN"
 "http://www.w3.org/TR/2001/REC-SVG-20010904/DTD/svg10.dtd">
<svg version="1.0" xmlns="http://www.w3.org/2000/svg"
 width="512.000000pt" height="512.000000pt" viewBox="0 0 512.000000 512.000000"
 preserveAspectRatio="xMidYMid meet">
<metadata>
Created by potrace 1.14, written by Peter Selinger 2001-2017
</metadata>
<g transform="translate(0.000000,512.000000) scale(0.100000,-0.100000)"
fill="#000000" stroke="none">
<path d="M2399 5066 c-2 -2 -33 -7 -69 -11 -107 -11 -115 -12 -217 -35 -299
-67 -558 -189 -808 -379 -80 -60 -248 -230 -310 -311 -27 -36 -55 -71 -62 -78
-25 -25 -123 -192 -176 -298 -53 -106 -130 -315 -142 -383 -3 -19 -8 -37 -10
-41 -8 -13 -44 -237 -50 -315 -12 -145 -7 -428 9 -510 2 -11 7 -42 10 -70 29
-230 122 -514 239 -730 51 -93 151 -247 191 -293 13 -15 43 -49 66 -77 58 -68
190 -191 276 -258 237 -185 553 -328 824 -372 25 -4 52 -9 61 -10 88 -17 273
-22 377 -11 55 6 62 5 63 -11 1 -18 1 -25 19 -128 21 -123 33 -169 73 -265
115 -281 374 -450 688 -450 330 0 618 207 754 542 52 128 61 169 47 217 -16
51 -68 93 -116 93 -59 0 -99 -27 -139 -95 -96 -164 -219 -260 -369 -288 -65
-12 -83 -11 -233 16 -113 21 -193 77 -238 168 -30 63 -64 180 -72 252 l-5 51
92 39 c382 160 646 428 783 792 69 183 99 362 99 593 0 104 -10 292 -18 340
-3 14 -7 43 -10 65 -4 35 -15 91 -30 160 -34 160 -106 351 -186 491 -195 341
-513 580 -860 648 -14 3 -46 9 -71 14 -72 14 -304 7 -394 -13 -463 -99 -797
-418 -900 -862 -65 -276 -23 -530 122 -742 139 -202 342 -314 558 -306 50 1
101 5 114 9 81 19 173 62 258 119 l52 35 -5 -37 c-7 -46 -10 -69 -19 -156 -4
-38 -9 -86 -11 -105 -2 -19 -7 -168 -10 -330 -3 -162 -8 -297 -10 -299 -7 -7
-281 -6 -329 2 -225 36 -453 138 -639 285 -298 235 -492 579 -556 987 -90 568
60 1082 422 1446 191 192 388 316 635 398 182 61 332 84 563 85 202 1 289 -8
460 -48 430 -101 760 -390 951 -834 53 -123 72 -149 123 -166 77 -26 157 20
172 99 12 66 -90 329 -200 515 -278 473 -735 760 -1331 836 -22 3 -51 8 -65
10 -31 7 -435 15 -441 10z m443 -1475 c378 -97 621 -484 655 -1041 23 -370
-54 -634 -238 -819 -56 -55 -183 -147 -186 -134 -1 5 -4 118 -7 253 -3 135 -8
279 -11 320 -4 41 -7 217 -9 390 -1 173 -6 326 -10 339 -28 83 -150 110 -211
47 -6 -6 -30 -37 -53 -68 -162 -221 -359 -354 -505 -342 -169 15 -312 228
-300 448 4 71 50 215 93 289 153 269 470 398 782 318z"/>
</g>
</svg>
